:SAMPLES-PER-SECOND 30
:FULLY-SPECIFIED
:DEGREES
171
root  35.08243711 36.45036052 -14.83739417 12.4056673 13.65619755 5.875761986
lowerback  -8.974699974 3.680219889 4.002900124
upperback  -4.312610149 4.254630089 -5.105589867
thorax  1.219759941 1.877789974 -7.168469906
lowerneck  -14.79839993 -6.580430031 -2.499929905
upperneck  12.5333004 -9.853569984 7.714300156
head  6.776390076 -4.342810154 1.843709946
lclavicle  0 -4.497500157e-015 -2.743230041e-014
lhumerus  -43.47159958 29.8920002 65.12480164
lradius  -0.1141076311 -6.507048965e-006 24.67129898
lwrist  4.824992743e-007 -3.790274832e-007 -38.27780151
lhand  -4.453798173e-031 -37.54880142 -10.57530022
lfingers  90 7.125020027 -90
lthumb  95.09780034 -25.38949752 101.7531678
rclavicle  0 -4.497500157e-015 -2.743230041e-014
rhumerus  66.88210297 -11.95050049 -56.01459885
rradius  -5.16745672e-007 2.214343908e-008 37.07569885
rwrist  1.380293725e-006 2.528095422e-007 -154.2409973
rhand  -1.771734989e-031 4.784029961 -7.616950035
rfingers  -90 -7.125020027 -90
rthumb  -85.02642003 -8.484519912 -59.46684463
rfemur  -15.17838383 9.70878315 13.70311832
rtibia  -3.974511862 1.318181157 25.55314636
rfoot  -3.618205309 -14.45630741 -45.42200851
rtoes  3.875084048 19.63610089 -101.3963487
lfemur  -13.16292 -24.17722511 -19.65451241
ltibia  3.503476381 2.365023375 15.02721691
lfoot  1.138984561 -29.90303612 29.16317177
ltoes  -8.720869976 -18.06899025 -116.3152485
172
root  35.08464783 36.44967868 -14.84100762 12.37282658 13.56914711 5.855351925
lowerback  -8.965029716 3.655809879 3.936670065
upperback  -4.327879906 4.225240231 -5.075119972
thorax  1.187240005 1.861889958 -7.102109909
lowerneck  -14.80200005 -6.54324007 -2.511199951
upperneck  12.56499958 -9.800729752 7.701879978
head  6.78412199 -4.317621231 1.842182517
lclavicle  0 -4.497500157e-015 -2.743230041e-014
lhumerus  -43.50139999 29.90259933 65.13359833
lradius  -0.1142109409 -6.507048965e-006 24.64590263
lwrist  4.824992743e-007 -3.790274832e-007 -38.26390076
lhand  -4.451798094e-031 -37.51530075 -10.63510036
lfingers  90 7.125020027 -90
lthumb  95.09554972 -25.44926058 101.723054
rclavicle  0 -4.497500157e-015 -2.743230041e-014
rhumerus  66.98600006 -11.95119953 -56.56240082
rradius  -5.16745672e-007 2.214343908e-008 37.07279968
rwrist  1.380293725e-006 2.528095422e-007 -153.7160034
rhand  -1.771622033e-031 4.740180016 -7.438690186
rfingers  -90 -7.125020027 -90
rthumb  -84.94509243 -8.635148667 -59.49601314
rfemur  -15.1586237 9.744729042 13.69941425
rtibia  -3.95504427 1.316899657 25.5332756
rfoot  -3.603921175 -14.49481678 -45.38679886
rtoes  3.852903831 19.64029916 -101.3303518
lfemur  -13.15074062 -24.16361809 -19.65312386
ltibia  3.491265059 2.332732916 15.05846024
lfoot  1.143493295 -29.85514832 29.23002052
ltoes  -8.697385166 -18.08001346 -116.239553
173
root  35.08347339 36.44957655 -14.84337153 12.34909916 13.49447823 5.819067955
lowerback  -8.956681252 3.635050058 3.906670809
upperback  -4.334499836 4.198540211 -5.067659855
thorax  1.169109941 1.847579956 -7.080639839
lowerneck  -14.82149982 -6.51940012 -2.501110077
upperneck  12.61200047 -9.771109581 7.681359768
head  6.799459934 -4.302710056 1.845258474
lclavicle  0 -4.497500157e-015 -2.743230041e-014
lhumerus  -43.54570007 29.9754982 65.08830261
lradius  -0.1143115535 -6.507048965e-006 24.64690399
lwrist  4.824992743e-007 -3.790274832e-007 -38.33369827
lhand  -0 -37.48469925 -10.64169979
lfingers  90 7.125020027 -90
lthumb  95.08271006 -25.45687154 101.6910042
rclavicle  0 -4.497500157e-015 -2.743230041e-014
rhumerus  67.06500244 -11.91869926 -56.95740128
rradius  -5.16745672e-007 2.214343908e-008 37.10599899
rwrist  1.380293725e-006 2.528095422e-007 -153.3609924
rhand  -1.771442025e-031 4.669439793 -7.400259972
rfingers  -90 -7.125020027 -90
rthumb  -84.94188203 -8.663678945 -59.56200401
rfemur  -15.14517689 9.742025375 13.71244431
rtibia  -3.929363012 1.316379905 25.49695778
rfoot  -3.59027338 -14.55119991 -45.35552979
rtoes  3.882238788 19.63474127 -101.4176404
lfemur  -13.18710327 -24.1789875 -19.60915565
ltibia  3.460319519 2.300833464 15.13668633
lfoot  1.151017904 -29.82050896 29.30401993
ltoes  -8.699772685 -18.07889452 -116.2472463
174
root  35.0841372 36.44924614 -14.84595171 12.3217535 13.4241333 5.782953262
lowerback  -8.951160431 3.615969658 3.856559753
upperback  -4.348529816 4.174510002 -5.058380127
thorax  1.143759966 1.834030032 -7.045400143
lowerneck  -14.80749989 -6.499989986 -2.49822998
upperneck  12.64089966 -9.746489525 7.669569969
head  6.8042202 -4.291399956 1.846742034
lclavicle  0 -4.497500157e-015 -2.743230041e-014
lhumerus  -43.5931015 29.98230171 65.07759857
lradius  -0.1144094914 -6.507048965e-006 24.68700218
lwrist  4.824992743e-007 -3.790274832e-007 -38.31710052
lhand  -0 -37.44829941 -10.54469967
lfingers  90 7.125020027 -90
lthumb  95.04398143 -25.36320994 101.6428053
rclavicle  0 -4.497500157e-015 -2.743230041e-014
rhumerus  66.99160004 -11.85249996 -56.9538002
rradius  -5.16745672e-007 2.214343908e-008 37.21110153
rwrist  1.380293725e-006 2.528095422e-007 -153.5189972
rhand  -1.771493782e-031 4.689889908 -7.321790218
rfingers  -90 -7.125020027 -90
rthumb  -84.89686875 -8.732641804 -59.53599597
rfemur  -15.1251955 9.729653358 13.72381783
rtibia  -3.900790215 1.3165977 25.45950508
rfoot  -3.56817174 -14.60388947 -45.29953384
rtoes  3.881384704 19.63490371 -101.4150987
lfemur  -13.19307899 -24.16831589 -19.57606888
ltibia  3.441396952 2.297185898 15.18188858
lfoot  1.170931935 -29.83830452 29.38866997
ltoes  -8.695706598 -18.08079991 -116.2341444
175
root  35.08393596 36.44895178 -14.84823302 12.30329037 13.36347008 5.75990963
lowerback  -8.949818611 3.594719887 3.826939344
upperback  -4.351960182 4.147429943 -5.046619892
thorax  1.132539988 1.820050001 -7.01914978
lowerneck  -14.79059982 -6.46724987 -2.478899956
upperneck  12.63729954 -9.703180313 7.65459013
head  6.800417423 -4.271271229 1.842974901
lclavicle  0 -4.497500157e-015 -2.743230041e-014
lhumerus  -43.63359833 30.03770065 65.05020142
lradius  -0.1145047545 -6.507048965e-006 24.71850014
lwrist  4.824992743e-007 -3.790274832e-007 -38.37939835
lhand  -4.44596016e-031 -37.41719818 -10.4666996
lfingers  90 7.125020027 -90
lthumb  95.01212002 -25.28797094 101.6021641
rclavicle  0 -4.497500157e-015 -2.743230041e-014
rhumerus  66.62200165 -11.74950123 -56.24010086
rradius  -5.16745672e-007 2.214343908e-008 37.57870102
rwrist  1.380293725e-006 2.528095422e-007 -154.3679962
rhand  -1.771389417e-031 4.648560047 -7.174099922
rfingers  -90 -7.125020027 -90
rthumb  -84.83089073 -8.85728975 -59.56468851
rfemur  -15.11999035 9.737675667 13.72881985
rtibia  -3.881616354 1.318266511 25.44600868
rfoot  -3.559911251 -14.64666843 -45.26464462
rtoes  3.881776104 19.63482928 -101.4162635
lfemur  -13.20499802 -24.15864944 -19.5575676
ltibia  3.425049067 2.282330036 15.22080135
lfoot  1.168773055 -29.82612228 29.42050362
ltoes  -8.656019616 -18.09933869 -116.1063329
176
root  35.08419127 36.44821888 -14.85037015 12.29264832 13.27855873 5.75720644
lowerback  -8.965950012 3.579479933 3.826819658
upperback  -4.343510151 4.127460003 -5.027210236
thorax  1.145810008 1.811059952 -6.999670029
lowerneck  -14.81529999 -6.440859795 -2.473939896
upperneck  12.6882 -9.667920113 7.629119873
head  6.80995512 -4.254032135 1.833119035
lclavicle  0 -4.497500157e-015 -2.743230041e-014
lhumerus  -43.63470078 29.99030113 65.11380005
lradius  -0.1145973504 -6.507048965e-006 24.77159882
lwrist  4.824992743e-007 -3.790274832e-007 -38.24539948
lhand  -0 -37.41870117 -10.46240044
lfingers  90 7.125020027 -90
lthumb  95.01189128 -25.2837258 101.6034167
rclavicle  0 -4.497500157e-015 -2.743230041e-014
rhumerus  66.49949646 -11.73150063 -56.21360016
rradius  -5.16745672e-007 2.214343908e-008 37.76860046
rwrist  1.380293725e-006 2.528095422e-007 -154.5299988
rhand  -1.771580414e-031 4.723919868 -7.538799763
rfingers  -90 -7.125020027 -90
rthumb  -85.00023236 -8.547837055 -59.51951854
rfemur  -15.1306324 9.778470993 13.71161175
rtibia  -3.87451911 1.299390078 25.45248604
rfoot  -3.562506676 -14.70014477 -45.23933029
rtoes  3.872129438 19.63666159 -101.3875565
lfemur  -13.18804169 -24.1129818 -19.57424164
ltibia  3.43048954 2.271291018 15.20487785
lfoot  1.167070866 -29.79616356 29.45376015
ltoes  -8.64364215 -18.10509876 -116.0664972
177
root  35.08471391 36.44846819 -14.85191555 12.26609135 13.21687031 5.746288776
lowerback  -8.981679916 3.554820061 3.794700146
upperback  -4.350870132 4.095099926 -5.00646019
thorax  1.13835001 1.794340014 -6.962299824
lowerneck  -14.80189991 -6.412390232 -2.473969936
upperneck  12.69950008 -9.629630089 7.62432003
head  6.809809685 -4.236052513 1.83161962
lclavicle  0 -4.497500157e-015 -2.743230041e-014
lhumerus  -43.62120056 29.91439819 65.19480133
lradius  -0.1146873012 -6.507048965e-006 24.79319763
lwrist  4.824992743e-007 -3.790274832e-007 -38.01179886
lhand  -4.445983938e-031 -37.41759872 -10.39480019
lfingers  90 7.125020027 -90
lthumb  94.99632376 -25.21750307 101.5957852
rclavicle  0 -4.497500157e-015 -2.743230041e-014
rhumerus  66.5535965 -11.73530006 -56.70100021
rradius  -5.16745672e-007 2.214343908e-008 37.82590103
rwrist  1.380293725e-006 2.528095422e-007 -154.0429993
rhand  -1.771750501e-031 4.790019989 -7.727749825
rfingers  -90 -7.125020027 -90
rthumb  -85.08196738 -8.389453897 -59.46937626
rfemur  -15.11645317 9.797190666 13.71028709
rtibia  -3.863216877 1.303411365 25.4468689
rfoot  -3.549936056 -14.71803188 -45.19742584
rtoes  3.880031935 19.63516092 -101.4110729
lfemur  -13.15903282 -24.09176254 -19.58284569
ltibia  3.431219816 2.253058434 15.20104408
lfoot  1.166707993 -29.76081657 29.49237633
ltoes  -8.648619581 -18.10278367 -116.0825151
178
root  35.08301382 36.44971772 -14.8538229 12.25145531 13.15408039 5.742164135
lowerback  -8.967120171 3.532490015 3.791600227
upperback  -4.361710072 4.064360142 -4.998529911
thorax  1.113690019 1.777559996 -6.956679821
lowerneck  -14.80802536 -6.390100002 -2.444610119
upperneck  12.73680019 -9.604720116 7.597509861
head  6.811437607 -4.223780155 1.823750019
lclavicle  0 -4.497500157e-015 -2.743230041e-014
lhumerus  -43.63570023 29.91329956 65.1957016
lradius  -0.1147746071 -6.507048965e-006 24.81430054
lwrist  4.824992743e-007 -3.790274832e-007 -37.95280075
lhand  -4.448771503e-031 -37.46450043 -10.41259956
lfingers  90 7.125020027 -90
lthumb  95.0220124 -25.23324398 101.647467
rclavicle  0 -4.497500157e-015 -2.743230041e-014
rhumerus  66.29260254 -11.69290066 -56.44889832
rradius  -5.16745672e-007 2.214343908e-008 38.09400177
rwrist  1.380293725e-006 2.528095422e-007 -154.4850006
rhand  -1.77191305e-031 4.852340221 -7.679130077
rfingers  -90 -7.125020027 -90
rthumb  -85.04263285 -8.43557327 -59.40508016
rfemur  -15.11322975 9.828162193 13.70016003
rtibia  -3.855994463 1.280934453 25.4429245
rfoot  -3.555616856 -14.77719784 -45.19551468
rtoes  3.846458459 19.64151443 -101.3111762
lfemur  -13.11892796 -24.04206848 -19.60101891
ltibia  3.436659336 2.253512144 15.16314793
lfoot  1.16990602 -29.74761581 29.52366066
ltoes  -8.673947642 -18.09097724 -116.1640542
